# xmcd
#
# Track frame offsets:
#	150
#	3271
#	18837
#	34362
#	53663
#	71565
#	88423
#	105520
#	126616
#	144143
#	162467
#	180429
#	200614
#	218995
#
# Disc length: 3117 seconds
# Revision: 0
# Processed by: cddbd v1.5.2PL0 Copyright (c) Steve Scherf et al.
# Submitted via: dBpowerAMP V12.0
#
DISCID=c30c2b0e
DTITLE=Neaera - Ours Is the Storm
DYEAR=2013
DGENRE=Metal
TTITLE0=The Deafning
TTITLE1=Ours Is the Storm
TTITLE2=Decolonize the Mind
TTITLE3=Through Treacherous Flames
TTITLE4=Ascend to Chaos
TTITLE5=Walk with Fire
TTITLE6=My Night Is Starless
TTITLE7=Black Tomb
TTITLE8=Between Us and Annihilation
TTITLE9=Slaying the Wolf Within
TTITLE10=Back to the Soul
TTITLE11=Guardian of Ashes
TTITLE12=Skeleton World [*]
TTITLE13=Repressed Hate [*]
EXTD=
EXTT0=
EXTT1=
EXTT2=
EXTT3=
EXTT4=
EXTT5=
EXTT6=
EXTT7=
EXTT8=
EXTT9=
EXTT10=
EXTT11=
EXTT12=
EXTT13=
PLAYORDER=
